<svg width="171" height="44" viewBox="0 0 171 44" fill="none" xmlns="http://www.w3.org/2000/svg">
<g clip-path="url(#clip0_150_538)">
<rect x="13.25" y="2.875" width="28" height="25" rx="3.5" stroke="#0073FF" stroke-width="3"/>
<rect x="25.25" y="3.875" width="15" height="13" rx="3.5" stroke="#0073FF" stroke-width="3"/>
<path d="M53 23L59.699 8.195H61.967L68.75 23H65.999L64.193 18.842L65.285 19.577H56.402L57.536 18.842L55.73 23H53ZM60.812 11.093L57.851 18.107L57.305 17.456H64.361L63.92 18.107L60.896 11.093H60.812ZM74.1915 23.21C73.2675 23.21 72.4485 22.993 71.7345 22.559C71.0345 22.111 70.4885 21.474 70.0965 20.648C69.7045 19.822 69.5085 18.835 69.5085 17.687C69.5085 16.539 69.7045 15.559 70.0965 14.747C70.4885 13.921 71.0345 13.291 71.7345 12.857C72.4485 12.409 73.2675 12.185 74.1915 12.185C75.0735 12.185 75.8505 12.402 76.5225 12.836C77.2085 13.256 77.6635 13.83 77.8875 14.558H77.6145V7.544H80.2395V23H77.6565V20.753H77.9085C77.6845 21.509 77.2295 22.111 76.5435 22.559C75.8715 22.993 75.0875 23.21 74.1915 23.21ZM74.9265 21.194C75.7525 21.194 76.4175 20.907 76.9215 20.333C77.4255 19.745 77.6775 18.863 77.6775 17.687C77.6775 16.511 77.4255 15.636 76.9215 15.062C76.4175 14.488 75.7525 14.201 74.9265 14.201C74.1005 14.201 73.4285 14.488 72.9105 15.062C72.4065 15.636 72.1545 16.511 72.1545 17.687C72.1545 18.863 72.4065 19.745 72.9105 20.333C73.4285 20.907 74.1005 21.194 74.9265 21.194ZM90.1959 23.21C88.6559 23.21 87.3329 22.902 86.2269 22.286C85.1349 21.656 84.2949 20.774 83.7069 19.64C83.1189 18.492 82.8249 17.141 82.8249 15.587C82.8249 14.033 83.1189 12.689 83.7069 11.555C84.2949 10.421 85.1349 9.546 86.2269 8.93C87.3329 8.3 88.6559 7.985 90.1959 7.985C91.2319 7.985 92.1629 8.132 92.9889 8.426C93.8289 8.72 94.5499 9.154 95.1519 9.728L94.2699 11.87C93.6119 11.338 92.9749 10.96 92.3589 10.736C91.7569 10.498 91.0639 10.379 90.2799 10.379C88.7819 10.379 87.6339 10.834 86.8359 11.744C86.0519 12.64 85.6599 13.921 85.6599 15.587C85.6599 17.253 86.0519 18.541 86.8359 19.451C87.6339 20.361 88.7819 20.816 90.2799 20.816C91.0639 20.816 91.7569 20.704 92.3589 20.48C92.9749 20.242 93.6119 19.85 94.2699 19.304L95.1519 21.446C94.5499 22.006 93.8289 22.44 92.9889 22.748C92.1629 23.056 91.2319 23.21 90.1959 23.21ZM101.524 23.21C100.432 23.21 99.4866 22.986 98.6886 22.538C97.8906 22.09 97.2676 21.453 96.8196 20.627C96.3856 19.801 96.1686 18.821 96.1686 17.687C96.1686 16.553 96.3856 15.58 96.8196 14.768C97.2676 13.942 97.8906 13.305 98.6886 12.857C99.4866 12.409 100.432 12.185 101.524 12.185C102.616 12.185 103.561 12.409 104.359 12.857C105.171 13.305 105.794 13.942 106.228 14.768C106.676 15.58 106.9 16.553 106.9 17.687C106.9 18.821 106.676 19.801 106.228 20.627C105.794 21.453 105.171 22.09 104.359 22.538C103.561 22.986 102.616 23.21 101.524 23.21ZM101.524 21.194C102.35 21.194 103.008 20.907 103.498 20.333C103.988 19.745 104.233 18.863 104.233 17.687C104.233 16.511 103.988 15.636 103.498 15.062C103.008 14.488 102.35 14.201 101.524 14.201C100.698 14.201 100.04 14.488 99.5496 15.062C99.0596 15.636 98.8146 16.511 98.8146 17.687C98.8146 18.863 99.0596 19.745 99.5496 20.333C100.04 20.907 100.698 21.194 101.524 21.194ZM113.279 23.21C112.355 23.21 111.536 22.993 110.822 22.559C110.122 22.111 109.576 21.474 109.184 20.648C108.792 19.822 108.596 18.835 108.596 17.687C108.596 16.539 108.792 15.559 109.184 14.747C109.576 13.921 110.122 13.291 110.822 12.857C111.536 12.409 112.355 12.185 113.279 12.185C114.161 12.185 114.938 12.402 115.61 12.836C116.296 13.256 116.751 13.83 116.975 14.558H116.702V7.544H119.327V23H116.744V20.753H116.996C116.772 21.509 116.317 22.111 115.631 22.559C114.959 22.993 114.175 23.21 113.279 23.21ZM114.014 21.194C114.84 21.194 115.505 20.907 116.009 20.333C116.513 19.745 116.765 18.863 116.765 17.687C116.765 16.511 116.513 15.636 116.009 15.062C115.505 14.488 114.84 14.201 114.014 14.201C113.188 14.201 112.516 14.488 111.998 15.062C111.494 15.636 111.242 16.511 111.242 17.687C111.242 18.863 111.494 19.745 111.998 20.333C112.516 20.907 113.188 21.194 114.014 21.194ZM127.31 23.21C125.532 23.21 124.139 22.72 123.131 21.74C122.123 20.76 121.619 19.416 121.619 17.708C121.619 16.602 121.836 15.636 122.27 14.81C122.704 13.984 123.306 13.34 124.076 12.878C124.86 12.416 125.77 12.185 126.806 12.185C127.828 12.185 128.682 12.402 129.368 12.836C130.054 13.27 130.572 13.879 130.922 14.663C131.286 15.447 131.468 16.364 131.468 17.414V18.107H123.74V16.721H129.599L129.242 17.015C129.242 16.035 129.032 15.286 128.612 14.768C128.206 14.25 127.611 13.991 126.827 13.991C125.959 13.991 125.287 14.299 124.811 14.915C124.349 15.531 124.118 16.392 124.118 17.498V17.771C124.118 18.919 124.398 19.78 124.958 20.354C125.532 20.914 126.337 21.194 127.373 21.194C127.975 21.194 128.535 21.117 129.053 20.963C129.585 20.795 130.089 20.529 130.565 20.165L131.342 21.929C130.838 22.335 130.236 22.65 129.536 22.874C128.836 23.098 128.094 23.21 127.31 23.21ZM138.563 23.21C137.471 23.21 136.512 22.986 135.686 22.538C134.874 22.09 134.244 21.453 133.796 20.627C133.348 19.787 133.124 18.793 133.124 17.645C133.124 16.497 133.348 15.517 133.796 14.705C134.258 13.893 134.895 13.27 135.707 12.836C136.519 12.402 137.471 12.185 138.563 12.185C139.263 12.185 139.942 12.297 140.6 12.521C141.272 12.731 141.818 13.039 142.238 13.445L141.44 15.272C141.062 14.922 140.635 14.663 140.159 14.495C139.697 14.313 139.242 14.222 138.794 14.222C137.856 14.222 137.121 14.516 136.589 15.104C136.071 15.692 135.812 16.546 135.812 17.666C135.812 18.786 136.071 19.647 136.589 20.249C137.121 20.851 137.856 21.152 138.794 21.152C139.228 21.152 139.676 21.068 140.138 20.9C140.614 20.732 141.048 20.473 141.44 20.123L142.238 21.929C141.804 22.335 141.251 22.65 140.579 22.874C139.921 23.098 139.249 23.21 138.563 23.21ZM148.053 23.21C147.143 23.21 146.303 23.105 145.533 22.895C144.777 22.671 144.14 22.363 143.622 21.971L144.357 20.207C144.889 20.571 145.477 20.851 146.121 21.047C146.765 21.243 147.416 21.341 148.074 21.341C148.774 21.341 149.292 21.222 149.628 20.984C149.978 20.746 150.153 20.424 150.153 20.018C150.153 19.696 150.041 19.444 149.817 19.262C149.607 19.066 149.264 18.919 148.788 18.821L146.688 18.422C145.792 18.226 145.106 17.89 144.63 17.414C144.168 16.938 143.937 16.315 143.937 15.545C143.937 14.887 144.112 14.306 144.462 13.802C144.826 13.298 145.337 12.906 145.995 12.626C146.667 12.332 147.451 12.185 148.347 12.185C149.131 12.185 149.866 12.29 150.552 12.5C151.252 12.71 151.84 13.025 152.316 13.445L151.56 15.146C151.126 14.796 150.629 14.523 150.069 14.327C149.509 14.131 148.963 14.033 148.431 14.033C147.703 14.033 147.171 14.166 146.835 14.432C146.499 14.684 146.331 15.013 146.331 15.419C146.331 15.727 146.429 15.986 146.625 16.196C146.835 16.392 147.157 16.539 147.591 16.637L149.691 17.036C150.629 17.218 151.336 17.54 151.812 18.002C152.302 18.45 152.547 19.066 152.547 19.85C152.547 20.55 152.358 21.152 151.98 21.656C151.602 22.16 151.077 22.545 150.405 22.811C149.733 23.077 148.949 23.21 148.053 23.21Z" fill="#252428"/>
</g>
<defs>
<clipPath id="clip0_150_538">
<rect width="171" height="44" fill="white"/>
</clipPath>
</defs>
</svg>
