<svg width="160" height="22" viewBox="0 0 160 22" fill="none" xmlns="http://www.w3.org/2000/svg">
<g clip-path="url(#clip0_161_101)">
<rect x="1.75" y="1.375" width="22" height="20" rx="4" stroke="#0073FF" stroke-width="2"/>
<rect x="10.75" y="2.375" width="12" height="11" rx="2" stroke="#0073FF" stroke-width="2"/>
<path d="M35 17L40.104 5.72H41.832L47 17H44.904L43.528 13.832L44.36 14.392H37.592L38.456 13.832L37.08 17H35ZM40.952 7.928L38.696 13.272L38.28 12.776H43.656L43.32 13.272L41.016 7.928H40.952ZM51.1459 17.16C50.4419 17.16 49.8179 16.9947 49.2739 16.664C48.7405 16.3227 48.3245 15.8373 48.0259 15.208C47.7272 14.5787 47.5779 13.8267 47.5779 12.952C47.5779 12.0773 47.7272 11.3307 48.0259 10.712C48.3245 10.0827 48.7405 9.60267 49.2739 9.272C49.8179 8.93067 50.4419 8.76 51.1459 8.76C51.8179 8.76 52.4099 8.92533 52.9219 9.256C53.4445 9.576 53.7912 10.0133 53.9619 10.568H53.7539V5.224H55.7539V17H53.7859V15.288H53.9779C53.8072 15.864 53.4605 16.3227 52.9379 16.664C52.4259 16.9947 51.8285 17.16 51.1459 17.16ZM51.7059 15.624C52.3352 15.624 52.8419 15.4053 53.2259 14.968C53.6099 14.52 53.8019 13.848 53.8019 12.952C53.8019 12.056 53.6099 11.3893 53.2259 10.952C52.8419 10.5147 52.3352 10.296 51.7059 10.296C51.0765 10.296 50.5645 10.5147 50.1699 10.952C49.7859 11.3893 49.5939 12.056 49.5939 12.952C49.5939 13.848 49.7859 14.52 50.1699 14.968C50.5645 15.4053 51.0765 15.624 51.7059 15.624ZM63.3398 17.16C62.1664 17.16 61.1584 16.9253 60.3158 16.456C59.4838 15.976 58.8438 15.304 58.3958 14.44C57.9478 13.5653 57.7238 12.536 57.7238 11.352C57.7238 10.168 57.9478 9.144 58.3958 8.28C58.8438 7.416 59.4838 6.74933 60.3158 6.28C61.1584 5.8 62.1664 5.56 63.3398 5.56C64.1291 5.56 64.8384 5.672 65.4678 5.896C66.1078 6.12 66.6571 6.45067 67.1158 6.888L66.4438 8.52C65.9424 8.11467 65.4571 7.82667 64.9878 7.656C64.5291 7.47467 64.0011 7.384 63.4038 7.384C62.2624 7.384 61.3878 7.73067 60.7798 8.424C60.1824 9.10667 59.8838 10.0827 59.8838 11.352C59.8838 12.6213 60.1824 13.6027 60.7798 14.296C61.3878 14.9893 62.2624 15.336 63.4038 15.336C64.0011 15.336 64.5291 15.2507 64.9878 15.08C65.4571 14.8987 65.9424 14.6 66.4438 14.184L67.1158 15.816C66.6571 16.2427 66.1078 16.5733 65.4678 16.808C64.8384 17.0427 64.1291 17.16 63.3398 17.16ZM71.9704 17.16C71.1384 17.16 70.4184 16.9893 69.8104 16.648C69.2024 16.3067 68.7277 15.8213 68.3864 15.192C68.0557 14.5627 67.8904 13.816 67.8904 12.952C67.8904 12.088 68.0557 11.3467 68.3864 10.728C68.7277 10.0987 69.2024 9.61333 69.8104 9.272C70.4184 8.93067 71.1384 8.76 71.9704 8.76C72.8024 8.76 73.5224 8.93067 74.1304 9.272C74.749 9.61333 75.2237 10.0987 75.5544 10.728C75.8957 11.3467 76.0664 12.088 76.0664 12.952C76.0664 13.816 75.8957 14.5627 75.5544 15.192C75.2237 15.8213 74.749 16.3067 74.1304 16.648C73.5224 16.9893 72.8024 17.16 71.9704 17.16ZM71.9704 15.624C72.5997 15.624 73.101 15.4053 73.4744 14.968C73.8477 14.52 74.0344 13.848 74.0344 12.952C74.0344 12.056 73.8477 11.3893 73.4744 10.952C73.101 10.5147 72.5997 10.296 71.9704 10.296C71.341 10.296 70.8397 10.5147 70.4664 10.952C70.093 11.3893 69.9064 12.056 69.9064 12.952C69.9064 13.848 70.093 14.52 70.4664 14.968C70.8397 15.4053 71.341 15.624 71.9704 15.624ZM80.9271 17.16C80.2231 17.16 79.5991 16.9947 79.0551 16.664C78.5218 16.3227 78.1058 15.8373 77.8071 15.208C77.5085 14.5787 77.3591 13.8267 77.3591 12.952C77.3591 12.0773 77.5085 11.3307 77.8071 10.712C78.1058 10.0827 78.5218 9.60267 79.0551 9.272C79.5991 8.93067 80.2231 8.76 80.9271 8.76C81.5991 8.76 82.1911 8.92533 82.7031 9.256C83.2258 9.576 83.5725 10.0133 83.7431 10.568H83.5351V5.224H85.5351V17H83.5671V15.288H83.7591C83.5885 15.864 83.2418 16.3227 82.7191 16.664C82.2071 16.9947 81.6098 17.16 80.9271 17.16ZM81.4871 15.624C82.1165 15.624 82.6231 15.4053 83.0071 14.968C83.3911 14.52 83.5831 13.848 83.5831 12.952C83.5831 12.056 83.3911 11.3893 83.0071 10.952C82.6231 10.5147 82.1165 10.296 81.4871 10.296C80.8578 10.296 80.3458 10.5147 79.9511 10.952C79.5671 11.3893 79.3751 12.056 79.3751 12.952C79.3751 13.848 79.5671 14.52 79.9511 14.968C80.3458 15.4053 80.8578 15.624 81.4871 15.624ZM91.617 17.16C90.2623 17.16 89.201 16.7867 88.433 16.04C87.665 15.2933 87.281 14.2693 87.281 12.968C87.281 12.1253 87.4463 11.3893 87.777 10.76C88.1077 10.1307 88.5663 9.64 89.153 9.288C89.7503 8.936 90.4437 8.76 91.233 8.76C92.0117 8.76 92.6623 8.92533 93.185 9.256C93.7077 9.58667 94.1023 10.0507 94.369 10.648C94.6463 11.2453 94.785 11.944 94.785 12.744V13.272H88.897V12.216H93.361L93.089 12.44C93.089 11.6933 92.929 11.1227 92.609 10.728C92.2997 10.3333 91.8463 10.136 91.249 10.136C90.5877 10.136 90.0757 10.3707 89.713 10.84C89.361 11.3093 89.185 11.9653 89.185 12.808V13.016C89.185 13.8907 89.3983 14.5467 89.825 14.984C90.2623 15.4107 90.8757 15.624 91.665 15.624C92.1237 15.624 92.5503 15.5653 92.945 15.448C93.3503 15.32 93.7343 15.1173 94.097 14.84L94.689 16.184C94.305 16.4933 93.8463 16.7333 93.313 16.904C92.7797 17.0747 92.2143 17.16 91.617 17.16ZM100.191 17.16C99.3586 17.16 98.628 16.9893 97.9986 16.648C97.38 16.3067 96.9 15.8213 96.5586 15.192C96.2173 14.552 96.0466 13.7947 96.0466 12.92C96.0466 12.0453 96.2173 11.2987 96.5586 10.68C96.9106 10.0613 97.396 9.58667 98.0146 9.256C98.6333 8.92533 99.3586 8.76 100.191 8.76C100.724 8.76 101.241 8.84533 101.743 9.016C102.255 9.176 102.671 9.41067 102.991 9.72L102.383 11.112C102.095 10.8453 101.769 10.648 101.407 10.52C101.055 10.3813 100.708 10.312 100.367 10.312C99.652 10.312 99.092 10.536 98.6866 10.984C98.292 11.432 98.0946 12.0827 98.0946 12.936C98.0946 13.7893 98.292 14.4453 98.6866 14.904C99.092 15.3627 99.652 15.592 100.367 15.592C100.697 15.592 101.039 15.528 101.391 15.4C101.753 15.272 102.084 15.0747 102.383 14.808L102.991 16.184C102.66 16.4933 102.239 16.7333 101.727 16.904C101.225 17.0747 100.713 17.16 100.191 17.16ZM107.421 17.16C106.728 17.16 106.088 17.08 105.501 16.92C104.925 16.7493 104.44 16.5147 104.045 16.216L104.605 14.872C105.01 15.1493 105.458 15.3627 105.949 15.512C106.44 15.6613 106.936 15.736 107.437 15.736C107.97 15.736 108.365 15.6453 108.621 15.464C108.888 15.2827 109.021 15.0373 109.021 14.728C109.021 14.4827 108.936 14.2907 108.765 14.152C108.605 14.0027 108.344 13.8907 107.981 13.816L106.381 13.512C105.698 13.3627 105.176 13.1067 104.813 12.744C104.461 12.3813 104.285 11.9067 104.285 11.32C104.285 10.8187 104.418 10.376 104.685 9.992C104.962 9.608 105.352 9.30933 105.853 9.096C106.365 8.872 106.962 8.76 107.645 8.76C108.242 8.76 108.802 8.84 109.325 9C109.858 9.16 110.306 9.4 110.669 9.72L110.093 11.016C109.762 10.7493 109.384 10.5413 108.957 10.392C108.53 10.2427 108.114 10.168 107.709 10.168C107.154 10.168 106.749 10.2693 106.493 10.472C106.237 10.664 106.109 10.9147 106.109 11.224C106.109 11.4587 106.184 11.656 106.333 11.816C106.493 11.9653 106.738 12.0773 107.069 12.152L108.669 12.456C109.384 12.5947 109.922 12.84 110.285 13.192C110.658 13.5333 110.845 14.0027 110.845 14.6C110.845 15.1333 110.701 15.592 110.413 15.976C110.125 16.36 109.725 16.6533 109.213 16.856C108.701 17.0587 108.104 17.16 107.421 17.16Z" fill="white"/>
</g>
<defs>
<clipPath id="clip0_161_101">
<rect width="160" height="22" fill="white"/>
</clipPath>
</defs>
</svg>
