<svg width="150" height="139" viewBox="0 0 150 139" fill="none" xmlns="http://www.w3.org/2000/svg">
<path d="M149.597 74.4548C149.456 75.7955 149.268 77.1362 149.033 78.4649C149.033 78.512 149.021 78.5591 149.009 78.5947H149.021C148.809 79.7706 148.574 80.9465 148.303 82.1104C147.01 87.7197 144.976 93.2583 142.189 98.5144C131.699 118.306 110.885 133.358 89.5885 136.216C86.437 136.627 83.3209 136.804 80.2516 136.721C68.5745 136.498 57.5089 132.923 47.7486 127.243C42.2803 124.08 37.2121 120.258 32.6729 116.001C10.0125 94.7397 -9.22595 65.0828 4.72073 29.7691C9.76557 17.0106 22.1835 5.20409 35.2246 5.38037H35.3777C43.0448 5.5331 49.4301 9.62535 56.3681 12.2477C57.2736 12.5773 58.1791 12.8948 59.0964 13.1652C59.2492 13.2002 59.3903 13.2473 59.5197 13.2944C60.3547 13.5298 61.166 13.7297 62.0127 13.8939C63.2004 14.1293 64.4116 14.2941 65.6229 14.3762C73.6076 15.0112 82.0861 12.9533 90.3295 12.4239C98.3729 11.9187 106.252 13.0004 113.531 15.47C125.467 19.5267 135.721 27.3115 142.177 37.907C148.55 48.3843 151.055 61.3902 149.597 74.4548Z" fill="url(#paint0_linear_161_45)"/>
<path d="M138.62 44.0287V128.016H14.8369V44.0287C14.8369 41.2427 17.089 38.9907 19.8867 38.9907H133.57C136.368 38.9907 138.62 41.2427 138.62 44.0287Z" fill="url(#paint1_linear_161_45)"/>
<path d="M18.3198 124.533V44.0283C18.3198 43.1562 19.0085 42.4729 19.8871 42.4729H133.57C134.449 42.4729 135.137 43.1562 135.137 44.0283V124.533H18.3198Z" fill="#FDF8FF"/>
<path d="M18.4028 124.534H135.137C134.39 121.729 131.857 119.653 128.816 119.653C128.851 119.412 128.851 119.154 128.851 118.896C128.851 112.605 123.763 107.518 117.472 107.518C111.577 107.518 106.712 112.004 106.145 117.762C104.168 114.926 100.902 113.07 97.1899 113.07C92.9788 113.07 89.3346 115.458 87.5297 118.965L82.238 84.6147H70.3427L64.463 116.714C62.4693 114.479 59.5817 113.07 56.3501 113.07C52.6543 113.07 49.3714 114.926 47.3949 117.779C46.8276 112.02 41.9803 107.518 36.0676 107.518C29.794 107.518 24.7062 112.605 24.7062 118.896C24.7062 119.154 24.7062 119.412 24.7407 119.653H24.723C21.6827 119.653 19.1502 121.729 18.4028 124.534Z" fill="url(#paint2_linear_161_45)"/>
<path d="M82.9783 93.6342C82.9783 99.0907 80.8852 104.547 76.7224 108.722C68.3966 100.384 68.3966 86.9081 76.7224 78.5588C80.8852 82.7332 82.9783 88.1897 82.9783 93.6342Z" fill="url(#paint3_linear_161_45)"/>
<path d="M81.476 90.0098C81.476 94.1545 79.8861 98.2992 76.724 101.47C70.3999 95.1371 70.3999 84.9008 76.724 78.5588C79.8861 81.7296 81.476 85.8743 81.476 90.0098Z" fill="url(#paint4_linear_161_45)"/>
<path d="M144.881 128.017C144.881 130.947 143.702 133.605 141.772 135.523C139.866 137.44 137.209 138.632 134.278 138.632H19.1798C13.3183 138.632 8.57666 133.879 8.57666 128.017H144.881Z" fill="url(#paint5_linear_161_45)"/>
<path d="M95.5787 45.1027C95.5787 49.3549 95.1688 53.6861 94.4863 57.9382C93.5888 63.4982 92.2038 68.961 90.6042 74.1104C89.9798 76.1203 89.3164 78.0901 88.6339 79.9828H64.8339C61.0883 69.5268 57.8892 57.139 57.8892 45.1027C57.8892 15.8798 76.7338 0 76.7338 0C76.7338 0 95.5787 15.8798 95.5787 45.1027Z" fill="url(#paint6_linear_161_45)"/>
<path d="M88.5319 15.8218C83.1789 5.45824 76.7337 0 76.7337 0C76.7337 0 70.2886 5.45824 64.9355 15.8218C72.7987 11.9006 80.6642 11.9029 88.5319 15.8218Z" fill="#6F2C6F"/>
<path d="M107.108 69.3706L104.553 81.2116C104.553 81.2116 95.7935 76.1594 90.6045 74.1105C92.2041 68.961 93.589 63.4982 94.4866 57.9382L94.5061 57.9192C94.5061 57.9192 101.626 61.5674 107.108 69.3706Z" fill="#6F2C6F"/>
<path d="M46.3501 69.3706L48.9058 81.2116C48.9058 81.2116 57.6649 76.1594 62.8539 74.1105C61.2543 68.961 59.8693 63.4982 58.9718 57.9382L58.9522 57.9192C58.9522 57.9192 51.832 61.5674 46.3501 69.3706Z" fill="#6F2C6F"/>
<path d="M81.9975 87.1808H71.4694L68.0361 79.9824H85.4308L81.9975 87.1808Z" fill="#6F2C6F"/>
<path d="M81.5776 65.8363C81.5776 70.0744 79.9592 74.3124 76.7224 77.5493C70.2651 71.0748 70.2651 60.6141 76.7224 54.1396C79.9592 57.3765 81.5776 61.6145 81.5776 65.8363Z" fill="#6F2C6F"/>
<path d="M77.6071 39.991C82.9216 39.991 87.2299 35.6828 87.2299 30.3683C87.2299 25.0538 82.9216 20.7456 77.6071 20.7456C72.2926 20.7456 67.9844 25.0538 67.9844 30.3683C67.9844 35.6828 72.2926 39.991 77.6071 39.991Z" fill="#6F2C6F"/>
<path d="M84.672 30.3685C84.672 34.2724 81.5086 37.4356 77.6045 37.4356C73.7003 37.4356 70.5371 34.2724 70.5371 30.3685C70.5371 26.464 73.7003 23.3008 77.6045 23.3008C81.5086 23.3008 84.672 26.464 84.672 30.3685Z" fill="white"/>
<defs>
<linearGradient id="paint0_linear_161_45" x1="82.5355" y1="71.1214" x2="43.4355" y2="33.1972" gradientUnits="userSpaceOnUse">
<stop stop-color="#FAE8FB"/>
<stop offset="1" stop-color="#D3ADE7"/>
</linearGradient>
<linearGradient id="paint1_linear_161_45" x1="75.4253" y1="91.7586" x2="68.7777" y2="122.426" gradientUnits="userSpaceOnUse">
<stop stop-color="#5570A5"/>
<stop offset="1" stop-color="#274279"/>
</linearGradient>
<linearGradient id="paint2_linear_161_45" x1="11.9521" y1="99.8293" x2="109.361" y2="160.804" gradientUnits="userSpaceOnUse">
<stop stop-color="#E8EFFB"/>
<stop offset="1" stop-color="#ADC1E7"/>
</linearGradient>
<linearGradient id="paint3_linear_161_45" x1="76.7285" y1="100.098" x2="76.7285" y2="85.3983" gradientUnits="userSpaceOnUse">
<stop stop-color="#FFD46A"/>
<stop offset="0.195781" stop-color="#FDC561"/>
<stop offset="1" stop-color="#F4883B"/>
</linearGradient>
<linearGradient id="paint4_linear_161_45" x1="76.7288" y1="94.9199" x2="76.7288" y2="83.7544" gradientUnits="userSpaceOnUse">
<stop stop-color="#F8A04A"/>
<stop offset="1" stop-color="#E44D0B"/>
</linearGradient>
<linearGradient id="paint5_linear_161_45" x1="76.7289" y1="133.665" x2="76.7289" y2="138.598" gradientUnits="userSpaceOnUse">
<stop stop-color="#5F74A1"/>
<stop offset="1" stop-color="#91A8D8"/>
</linearGradient>
<linearGradient id="paint6_linear_161_45" x1="76.7339" y1="0" x2="76.7339" y2="79.9828" gradientUnits="userSpaceOnUse">
<stop stop-color="#EAC0EA"/>
<stop offset="1" stop-color="#BD84BD"/>
</linearGradient>
</defs>
</svg>
