<svg width="18" height="16" viewBox="0 0 18 16" fill="none" xmlns="http://www.w3.org/2000/svg">
<path d="M12.3524 5.78995H16.5124L13.8616 3.13745C13.0081 2.28401 11.9451 1.67028 10.7792 1.35795C9.61342 1.04563 8.38591 1.04572 7.22013 1.35822C6.05435 1.67072 4.99137 2.28461 4.13807 3.13817C3.28477 3.99174 2.67121 5.0549 2.35907 6.22078M1.48741 14.3699V10.2099M1.48741 10.2099H5.64741M1.48741 10.2099L4.13741 12.8624C4.99084 13.7159 6.0539 14.3296 7.21973 14.6419C8.38556 14.9543 9.61307 14.9542 10.7788 14.6417C11.9446 14.3292 13.0076 13.7153 13.8609 12.8617C14.7142 12.0082 15.3278 10.945 15.6399 9.77912M16.5124 1.62995V5.78828" stroke="#6F2C6F" stroke-width="1.5" stroke-linecap="round" stroke-linejoin="round"/>
</svg>
